<?xml version="1.0" standalone="no"?>
<!DOCTYPE svg PUBLIC "-//W3C//DTD SVG 20010904//EN"
 "http://www.w3.org/TR/2001/REC-SVG-20010904/DTD/svg10.dtd">
<svg version="1.0" xmlns="http://www.w3.org/2000/svg"
 width="667.000000pt" height="667.000000pt" viewBox="0 0 667.000000 667.000000"
 preserveAspectRatio="xMidYMid meet">
<metadata>
Created by potrace 1.14, written by Peter Selinger 2001-2017
</metadata>
<g transform="translate(0.000000,667.000000) scale(0.100000,-0.100000)"
fill="#000000" stroke="none">
<path d="M3246 4764 c-150 -36 -301 -157 -369 -295 -20 -41 -38 -85 -41 -99
-2 -14 -8 -43 -13 -65 -24 -111 6 -269 73 -382 48 -83 192 -213 234 -213 8 0
60 44 116 98 287 276 448 428 461 435 11 7 41 -19 115 -97 56 -59 103 -104
106 -101 11 11 28 146 25 196 -15 255 -191 466 -438 524 -75 18 -192 18 -269
-1z"/>
<path d="M3524 3892 c-113 -110 -418 -402 -524 -502 -40 -38 -212 -203 -442
-422 -27 -27 -54 -48 -60 -48 -6 0 -20 10 -32 23 -12 12 -107 103 -211 202
-104 99 -232 221 -285 271 -52 51 -117 113 -144 138 -26 26 -52 46 -56 44 -4
-2 -85 -77 -180 -168 -95 -91 -198 -189 -229 -218 -31 -30 -135 -129 -231
-222 -96 -92 -200 -191 -230 -220 -47 -45 -304 -290 -435 -415 -23 -22 -128
-123 -233 -224 -106 -101 -201 -192 -213 -202 -22 -19 49 -19 3314 -19 l3337
0 0 48 0 49 -157 151 c-87 82 -183 173 -213 202 -30 29 -100 95 -156 148 -91
88 -338 324 -534 511 -291 279 -374 356 -380 356 -4 0 -75 -64 -156 -141 -82
-78 -185 -176 -229 -217 l-80 -76 -50 48 c-27 27 -73 70 -101 97 -63 60 -369
352 -434 414 -26 25 -134 128 -240 230 -213 204 -248 237 -276 262 -18 16 -24
11 -140 -100z m316 -389 c47 -45 105 -100 130 -123 39 -37 108 -102 354 -333
121 -114 180 -170 326 -308 85 -81 171 -161 190 -179 19 -17 69 -64 110 -103
42 -40 110 -105 152 -145 42 -40 68 -70 56 -66 -11 3 -71 30 -134 60 -62 30
-116 54 -118 54 -3 0 -38 15 -78 34 -40 19 -138 63 -218 99 -80 36 -174 78
-210 95 -106 48 -92 52 -225 -55 -160 -127 -225 -177 -228 -172 -2 2 -29 72
-62 154 -32 83 -85 216 -118 297 l-59 148 -70 -113 c-39 -61 -76 -123 -84
-137 -8 -14 -22 -37 -32 -52 -9 -15 -48 -79 -87 -142 -38 -64 -73 -116 -76
-116 -4 0 0 26 7 58 7 31 15 75 18 97 4 22 11 67 17 100 7 33 13 69 14 80 2
11 10 58 19 105 8 47 17 101 21 120 3 19 7 46 10 60 3 14 7 40 10 59 3 19 8
38 11 43 3 4 2 8 -2 8 -5 0 -57 -51 -117 -112 -391 -403 -469 -480 -484 -474
-10 4 -12 10 -6 19 5 6 178 265 383 575 l374 563 60 -59 c34 -32 99 -95 146
-139z m-1783 -469 c271 -284 283 -297 283 -299 0 -1 -87 -91 -194 -200 l-195
-197 -20 69 c-57 192 -74 251 -81 278 -27 97 -18 100 -100 -34 -41 -67 -80
-129 -85 -139 -82 -139 -115 -189 -115 -174 0 6 4 33 10 59 5 26 11 62 14 78
2 17 18 111 35 210 18 99 34 191 36 204 3 18 -27 -8 -112 -95 -242 -249 -404
-413 -412 -419 -5 -3 30 52 77 122 47 71 152 227 232 348 80 121 188 282 239
359 l93 138 66 -70 c37 -38 140 -145 229 -238z m3374 -84 c79 -74 179 -169
222 -210 97 -92 105 -99 297 -280 232 -218 259 -245 223 -221 -17 11 -33 21
-36 21 -4 0 -123 73 -332 203 -38 24 -85 52 -103 63 l-34 19 -20 -25 c-11 -14
-30 -37 -42 -53 l-22 -27 -69 66 c-39 36 -108 101 -153 145 l-84 80 -80 -60
-81 -60 -46 38 c-25 22 -61 55 -79 74 l-33 34 131 196 130 196 34 -32 c18 -18
98 -93 177 -167z"/>
</g>
</svg>
